<?xml version="1.0" encoding="utf-8"?>
<!-- Generator: Adobe Illustrator 19.0.0, SVG Export Plug-In . SVG Version: 6.00 Build 0)  -->
<svg version="1.1" id="Capa_1" xmlns="http://www.w3.org/2000/svg" xmlns:xlink="http://www.w3.org/1999/xlink" x="0px" y="0px"
	 viewBox="0 0 211 76" style="enable-background:new 0 0 211 76;" xml:space="preserve">
<style type="text/css">
	.st0{fill:#A82522;}
	.st1{fill:#131211;}
	.st2{fill:#13140F;}
	.st3{fill:#11110E;}
	.st4{fill:url(#XMLID_120_);stroke:#11110E;stroke-width:2;stroke-linejoin:round;stroke-miterlimit:10;}
	.st5{fill:url(#XMLID_121_);stroke:#11110E;stroke-width:2;stroke-linejoin:round;stroke-miterlimit:10;}
	.st6{fill:url(#XMLID_122_);stroke:#11110E;stroke-width:2;stroke-miterlimit:10;}
	.st7{fill:url(#XMLID_125_);stroke:#11110E;stroke-width:2;stroke-linejoin:round;stroke-miterlimit:10;}
	.st8{fill:url(#XMLID_126_);stroke:#11110E;stroke-width:2;stroke-linecap:round;stroke-linejoin:round;stroke-miterlimit:10;}
	.st9{fill:url(#XMLID_127_);stroke:#11110E;stroke-width:2;stroke-linejoin:round;stroke-miterlimit:10;}
	.st10{fill:#FFFFFF;}
</style>
<g id="XMLID_123_">
	<g id="XMLID_128_">
		<path id="XMLID_80_" class="st0" d="M110.2,24.8c-4-2-7.1-2.9-9.5-2.9c-2.4,0-4.4,0.7-6,2.1c-1.5,1.3-2.3,2.7-2.3,4.2
			c0,0.8,0.3,1.4,0.9,1.7c0.8,0.4,1.5,0.6,2.2,0.6c0.3,0,0.5,0,0.8-0.1c0.9-0.2,1.7-0.6,2.3-1.1c0.6-0.5,0.9-0.9,0.9-1.2
			c0-0.3,0.1-0.5,0.3-0.6c0.2-0.1,0.3-0.1,0.3,0.1c0,0.1,0,0.3-0.1,0.4c-0.4,1.4-1.4,2.3-2.9,2.8c-0.6,0.2-1.3,0.3-2,0.3
			s-1.4-0.2-2-0.6c-1.3-0.7-1.9-1.8-1.9-3.2c0-1.7,0.8-3.3,2.4-4.8c1.6-1.4,3.6-2.1,5.9-2.1c1.1,0,2.3,0.2,3.4,0.5
			c2.9,0.8,5.5,1.9,7.9,3.4c0.6-0.7,1.2-1,1.9-1c0.7,0,1.1,0.2,1.1,0.7c0,0.2,0,0.3-0.2,0.3c-0.1,0-0.2-0.1-0.3-0.2
			c-0.2-0.1-0.3-0.1-0.4-0.1c-0.4,0-0.9,0.2-1.3,0.6c1.4,0.7,3.1,1.3,5.1,1.8c0.8,0.2,1.4,0.3,1.8,0.3s0.8,0,1,0
			c0.9-0.1,1.4-0.4,1.7-1c0.1-0.3,0.3-0.5,0.4-0.5s0.2,0,0.2,0.1c0,0.1,0,0.1,0,0.2c0,0.8-0.4,1.4-1.2,1.8c-0.5,0.3-1,0.4-1.4,0.4
			s-0.9,0-1.5-0.1s-1.2-0.3-2.1-0.5c-0.8-0.3-1.5-0.5-2.1-0.8c-0.5-0.2-1-0.5-1.6-0.7l-0.8-0.4c-1,1.2-2.1,3.1-3.3,6
			c-0.4,0.9-0.6,1.5-0.6,1.6c1.1,0.2,2.2,0.2,3.1,0.2s1.7,0,2.3,0c0.6,0,0.8,0,0.9,0.2c0,0.4-1.4,0.6-4.4,0.6c-0.9,0-1.7,0-2.3-0.1
			c-1.2,3.3-2.4,5.8-3.6,7.4c-0.5,0.7-1.1,1.4-1.9,2.1c-0.8,0.7-1.6,1.3-2.4,1.8c-1.9,1.1-4.1,1.6-6.5,1.6c-2.4,0-4.4-0.5-6.1-1.6
			c-2.5-1.6-3.8-3.8-3.8-6.8c0-1,0.2-2.1,0.5-3.2c0.2-0.7,0.7-1.4,1.3-2s1.2-0.9,1.6-1c0.4-0.1,0.6-0.2,0.6-0.1s-0.4,0.3-1,0.8
			c-1.3,0.9-2,2.1-2.3,3.4c-0.1,0.5-0.1,1.1-0.1,1.7c0,0.6,0.1,1.4,0.4,2.1c0.8,2.1,2.5,3.6,5,4.6c1.2,0.5,2.5,0.7,3.8,0.7
			c1.4,0,2.7-0.3,4.1-0.8c1.3-0.5,2.6-1.4,3.8-2.5c2.2-2.1,4.1-4.9,5.6-8.3l-1.9,0c-2.3,0-3.8,0.5-4.5,1.6c-0.2,0.2-0.3,0.3-0.4,0.2
			c-0.1-0.1-0.1-0.2,0-0.4c0.4-0.9,1-1.6,1.8-2c0.8-0.4,1.6-0.6,2.3-0.6c0.8,0,1.8,0.1,3.1,0.3c0.6-1.5,1.4-3,2.3-4.6
			C109.2,26.2,109.9,25.2,110.2,24.8z"/>
		<path id="XMLID_82_" class="st0" d="M118.9,32.4c1.4,0,2.1,0.9,2.1,2.7c0,0.8-0.2,1.7-0.6,2.6c-0.5,1.3-1.4,2.4-2.5,3.5
			c0.3,0.5,0.7,0.7,1.4,0.7c0.5,0,1-0.3,1.5-0.8c0.6-0.6,1-1.1,1.3-1.6c0.3-0.5,0.4-0.8,0.6-1c0.1-0.2,0.3-0.5,0.5-0.9
			c0.2-0.4,0.3-0.6,0.3-0.7s0.1-0.1,0.2-0.1c0.2,0,0.3,0,0.3,0.2c0,0.1,0,0.1-0.1,0.2l-0.2,0.4c-0.1,0.3-0.2,0.5-0.3,0.6
			c-0.1,0.1-0.2,0.3-0.3,0.6s-0.3,0.5-0.4,0.7s-0.3,0.4-0.4,0.7c-0.2,0.3-0.4,0.5-0.5,0.7c-0.1,0.2-0.3,0.4-0.5,0.6
			c-0.2,0.2-0.4,0.4-0.6,0.5c-0.5,0.3-0.9,0.4-1.4,0.4c-0.8,0-1.4-0.3-1.9-0.8c-0.9,0.7-1.7,1-2.5,1c-1.4,0-2.1-0.9-2.1-2.7
			c0-0.8,0.2-1.7,0.6-2.6c0.6-1.4,1.4-2.5,2.5-3.5S117.9,32.4,118.9,32.4z M119.2,33.3c-0.5,0-1.2,0.4-1.9,1.1
			c-0.7,0.7-1.4,1.7-1.9,2.9c-0.7,1.4-1,2.6-1,3.5c0,0.9,0.3,1.4,1,1.4c0.5,0,1-0.3,1.6-0.8c-0.3-0.4-0.5-0.9-0.5-1.4
			c0-0.8,0.4-1.3,1-1.3c0.3,0,0.5,0.1,0.6,0.3c0.2,0.2,0.2,0.3,0.2,0.5s0,0.3-0.1,0.5c0.3-0.5,0.7-1.2,1.1-2.1c0.5-1,0.7-2,0.7-2.9
			C120.3,33.8,119.9,33.3,119.2,33.3z"/>
		<path id="XMLID_85_" class="st0" d="M122.9,40.3c0-1.6,0.8-4.3,2.3-8.2h-1.5c-0.1,0-0.2-0.1-0.2-0.2c0-0.1,0-0.2,0-0.3
			s0.1-0.2,0.2-0.2h1.8c0.7-1.5,1.4-2.8,2-3.9s1.2-1.7,1.7-2.1c0.5-0.4,0.9-0.5,1.1-0.5c0.2,0,0.4,0,0.5,0.1
			c0.5,0.2,0.7,0.7,0.7,1.3s-0.2,1.5-0.7,2.5c-0.5,1-0.9,1.8-1.3,2.7h1.4c0.1,0,0.2,0.1,0.2,0.2s0,0.2,0,0.3c0,0.1-0.1,0.2-0.2,0.2
			h-1.7c-1.1,1.8-2.4,3.4-3.9,4.8l-0.7,3c-0.1,0.3-0.1,0.5-0.1,0.7c0,0.2,0.1,0.5,0.2,0.7s0.4,0.4,0.6,0.4c0.3,0,0.7-0.1,1.1-0.4
			c0.9-0.7,2-2.2,3.1-4.4c0.1-0.2,0.2-0.3,0.3-0.3s0.2,0,0.2,0.1s0,0.2-0.1,0.4c-0.6,1.4-1.2,2.3-1.5,2.9c-1.1,1.7-2.2,2.6-3.4,2.6
			c-0.6,0-1.1-0.2-1.5-0.7C123.1,41.6,122.9,41,122.9,40.3z M128.4,32.1H127c-0.2,0.5-0.8,1.8-1.6,3.9
			C126.5,35,127.5,33.7,128.4,32.1z M128.8,31.5c1.3-2.3,1.9-3.9,1.9-4.8c0-0.4-0.1-0.6-0.2-0.6c-0.2,0-0.5,0.3-1,0.9
			c-0.4,0.6-1.2,2.1-2.2,4.5H128.8z"/>
		<path id="XMLID_89_" class="st0" d="M135.1,32.4c1.4,0,2.1,0.9,2.1,2.7c0,0.8-0.2,1.7-0.6,2.6c-0.5,1.3-1.4,2.4-2.5,3.5
			c0.3,0.5,0.7,0.7,1.4,0.7c0.5,0,1-0.3,1.5-0.8c0.6-0.6,1-1.1,1.3-1.6c0.3-0.5,0.4-0.8,0.6-1c0.1-0.2,0.3-0.5,0.5-0.9
			c0.2-0.4,0.3-0.6,0.3-0.7s0.1-0.1,0.2-0.1c0.2,0,0.3,0,0.3,0.2c0,0.1,0,0.1-0.1,0.2l-0.2,0.4c-0.1,0.3-0.2,0.5-0.3,0.6
			c-0.1,0.1-0.2,0.3-0.3,0.6s-0.3,0.5-0.4,0.7s-0.3,0.4-0.4,0.7c-0.2,0.3-0.4,0.5-0.5,0.7c-0.1,0.2-0.3,0.4-0.5,0.6
			c-0.2,0.2-0.4,0.4-0.6,0.5c-0.5,0.3-0.9,0.4-1.4,0.4c-0.8,0-1.4-0.3-1.9-0.8c-0.9,0.7-1.7,1-2.5,1c-1.4,0-2.1-0.9-2.1-2.7
			c0-0.8,0.2-1.7,0.6-2.6c0.6-1.4,1.4-2.5,2.5-3.5S134.2,32.4,135.1,32.4z M135.5,33.3c-0.5,0-1.2,0.4-1.9,1.1
			c-0.7,0.7-1.4,1.7-1.9,2.9c-0.7,1.4-1,2.6-1,3.5c0,0.9,0.3,1.4,1,1.4c0.5,0,1-0.3,1.6-0.8c-0.3-0.4-0.5-0.9-0.5-1.4
			c0-0.8,0.4-1.3,1-1.3c0.3,0,0.5,0.1,0.6,0.3c0.2,0.2,0.2,0.3,0.2,0.5s0,0.3-0.1,0.5c0.3-0.5,0.7-1.2,1.1-2.1c0.5-1,0.7-2,0.7-2.9
			C136.6,33.8,136.2,33.3,135.5,33.3z"/>
		<path id="XMLID_92_" class="st0" d="M175.3,42.4c-0.9,1-1.9,1.4-3,1.4s-2.2-0.6-3.3-1.7s-1.9-2.7-2.6-4.7
			c-0.7-2.1-1.2-3.9-1.5-5.5c-0.6,1.3-1.1,2.2-1.5,2.9c-0.4,0.7-0.9,1.5-1.6,2.5c-0.7,1-1.4,1.9-2.1,2.8c-2.3,2.5-4.9,3.7-7.8,3.7
			c-2.6,0-4.3-0.7-4.9-2.1c-0.2-0.3-0.2-0.7-0.2-1.2s0.2-0.9,0.7-1.4c0.7-0.8,1.7-1.2,3-1.2c0.9,0,1.8,0.2,2.7,0.5
			c0.3,0.1,0.4,0.2,0.3,0.3c-0.1,0.1-0.3,0.1-0.8-0.1c-0.5-0.2-1-0.3-1.6-0.3s-1.2,0.2-1.6,0.7c-0.5,0.5-0.7,1-0.7,1.5
			c0,0.2,0,0.5,0.1,0.8c0.4,1,1.3,1.5,2.8,1.5c1.6,0,3-0.5,4.3-1.4c0.7-0.5,1.3-1.1,1.9-1.7s1.2-1.3,1.8-2.3c1-1.5,1.9-2.8,2.6-4.1
			c0.7-1.3,1.5-2.6,2.3-4.1c0.8-1.5,1.4-2.6,1.8-3.3c1.3-2.1,2.4-3.8,3.4-4.9c-1.1-0.1-2.2-0.1-3.3-0.1c-2.5,0-5,0.3-7.5,0.8
			c-2.5,0.5-4.4,1.4-5.9,2.6c-1.8,1.5-2.7,3.1-2.7,4.8c0,0.8,0.3,1.6,0.9,2.2s1.4,1,2.4,1c1.2,0,2.2-0.4,3-1.3
			c0.8-0.9,1.2-1.5,1.3-2.1c0-0.3,0.1-0.4,0.2-0.4c0.2,0,0.2,0.1,0.2,0.4c-0.1,0.9-0.5,1.7-1.1,2.4c-1.1,1.1-2.4,1.7-3.9,1.7
			c-1.2,0-2.2-0.4-3-1.2c-0.9-0.8-1.3-1.8-1.3-3.1c0-1.9,0.9-3.7,2.8-5.2c1.9-1.5,4.4-2.5,7.4-3c2.2-0.3,4.2-0.5,6.1-0.5
			c1.8,0,3.6,0.1,5.1,0.3c0.5-0.5,0.9-0.8,1.1-0.8c0.1,0,0.2,0.1,0.2,0.3s0,0.4-0.1,0.7c1.4,0.2,2.4,0.4,2.9,0.6
			c2.9,0.9,4.4,2.2,4.4,4c0,1.2-0.7,2.3-2.1,3.4c-1.8,1.4-4.2,2.3-7.2,2.8c-0.9,0.1-1.8,0.2-2.7,0.3c0.6,3.5,1.7,6.4,3.3,8.7
			c0.5,0.8,1,1.4,1.5,1.7s0.9,0.5,1.4,0.5c0.7,0,1.5-0.4,2.2-1.2c0.8-0.8,1.7-2.2,2.7-4.3c0.2-0.3,0.3-0.4,0.5-0.4
			c0.2,0,0.2,0.1,0,0.4C177.2,39.7,176.2,41.5,175.3,42.4z M176.6,24.6c0-0.2,0-0.3-0.1-0.5c-0.2-1.1-1.1-1.9-2.6-2.3
			c-0.5-0.1-1.4-0.3-2.9-0.6c-0.4,0.6-1.2,2-2.6,4.3c-1.4,2.2-2.4,4-3.1,5.3c0.4-0.1,1.1-0.2,1.9-0.2s1.4-0.1,1.8-0.2
			c2.2-0.3,4.1-1.1,5.7-2.6C176.1,26.7,176.6,25.7,176.6,24.6z"/>
		<path id="XMLID_95_" class="st0" d="M179.3,42c0.4,0,0.8-0.2,1.2-0.6c0.7-0.7,1.6-2.2,2.8-4.4c0.1-0.3,0.3-0.4,0.4-0.3
			c0,0,0.1,0.1,0.1,0.2c0,0.1-0.1,0.3-0.2,0.6c-0.2,0.3-0.3,0.7-0.4,0.9c-0.1,0.3-0.4,0.7-0.7,1.3c-0.4,0.6-0.7,1.1-1,1.4
			c-0.8,0.9-1.6,1.4-2.3,1.4c-0.7,0-1.2-0.2-1.5-0.6c-0.3-0.4-0.5-0.9-0.5-1.4s0.1-1.1,0.4-1.7l1.9-4.8c0-0.1,0.1-0.3,0.1-0.5
			c0-0.2-0.1-0.4-0.4-0.8l1.6,0c0.4,0,0.7,0.1,0.8,0.2c0.1,0.2,0,0.4-0.2,0.8l-2.3,5.5c-0.3,0.7-0.5,1.3-0.5,1.8
			C178.4,41.7,178.7,42,179.3,42z M182.2,31.2c-0.3,0.2-0.6,0.4-0.9,0.4c-0.3,0-0.6-0.1-0.8-0.4c-0.2-0.2-0.3-0.5-0.2-0.9
			c0.1-0.3,0.2-0.6,0.5-0.9c0.3-0.2,0.6-0.4,0.9-0.4c0.3,0,0.6,0.1,0.8,0.4c0.2,0.2,0.3,0.5,0.2,0.9C182.6,30.7,182.5,31,182.2,31.2
			z"/>
		<path id="XMLID_98_" class="st0" d="M191.4,32.4l-0.1,0.5c-1,3.1-1.9,5.4-2.8,6.8c-1.2,2.1-2.5,3.1-3.9,3.1
			c-1.1,0-1.6-0.5-1.6-1.6c0-0.8,0.3-2,0.9-3.7c-0.2,0.3-0.3,0.4-0.5,0.3c-0.1-0.1-0.1-0.2-0.1-0.4l0.5-1c0.4-0.8,0.6-1.5,0.6-2.3
			c0-0.8-0.2-1.2-0.5-1.3c1.2-0.2,1.9-0.3,2.1-0.3c0.2,0,0.3,0.1,0.4,0.3s0.1,0.3,0.1,0.5c0,1.2-0.3,2.6-0.9,4.2
			c-0.6,1.6-0.9,2.7-0.9,3.3s0.1,0.9,0.3,1c0.2,0.1,0.4,0.1,0.5,0.1c0.5,0,1.1-0.4,1.7-1.2c0.6-0.8,1.3-2,1.9-3.6
			c-0.3-0.6-0.4-1.2-0.4-1.7s0.1-0.9,0.2-1.3c0.4-1.1,0.9-1.8,1.7-2.1c0.2-0.1,0.3-0.1,0.4-0.1C191.2,31.9,191.4,32.1,191.4,32.4z"
			/>
		<path id="XMLID_100_" class="st0" d="M192.8,38.1c-0.3,0.7-0.4,1.4-0.4,2.2c0,0.5,0.1,1,0.4,1.3c0.2,0.3,0.6,0.5,1,0.5
			c1.8,0,3.4-1.7,4.8-5c0.1-0.3,0.3-0.5,0.5-0.4c0.1,0,0.1,0.1,0.1,0.1c0,0.1-0.2,0.6-0.7,1.5c-0.4,0.9-0.9,1.7-1.3,2.3
			c-1,1.4-2.2,2.1-3.7,2.1c-0.8,0-1.4-0.3-2-0.8s-0.8-1.2-0.8-2.1s0.2-1.8,0.6-2.8c0.4-1,1-1.9,1.7-2.8c0.7-0.9,1.6-1.5,2.5-1.9
			c0.4-0.2,0.9-0.3,1.3-0.3s0.8,0.1,1.1,0.4c0.3,0.3,0.5,0.6,0.5,0.9c0,1.2-0.7,2.3-2.1,3.4c-0.4,0.3-1,0.6-1.8,0.9
			C193.9,38,193.3,38.1,192.8,38.1z M197.8,33.4c0-0.4-0.2-0.6-0.5-0.6c-0.5,0-1.4,0.7-2.5,2c-0.7,0.8-1.3,1.7-1.8,2.8
			c0.3,0,0.8-0.1,1.5-0.4c0.6-0.2,1.2-0.5,1.7-0.9C197.2,35.4,197.8,34.5,197.8,33.4z"/>
		<path id="XMLID_103_" class="st0" d="M203,30.9c0,0.9-0.6,1.7-1.7,2.5c0.4,0,0.9,0,1.6,0s1.5,0,2.5-0.1c0,0.1,0.1,0.2,0.1,0.5
			c0,0.3-0.1,0.6-0.4,1.1c-0.2,0.5-0.4,0.9-0.6,1.3c-0.2,0.4-0.4,0.7-0.5,1c-0.2,0.3-0.4,0.7-0.6,1.2c-0.2,0.5-0.4,0.9-0.5,1.3
			c-0.5,1.5-0.4,2.2,0.2,2.2c0.8,0,2-1.6,3.6-4.9c0.1-0.3,0.3-0.4,0.3-0.3s0.1,0.1,0.1,0.2c0,0.1-0.1,0.4-0.4,0.9
			c-0.3,0.5-0.5,1.1-0.8,1.6s-0.8,1.2-1.4,1.9c-0.7,0.9-1.5,1.3-2.1,1.3c-0.8,0-1.3-0.5-1.6-1.4c-0.1-0.2-0.1-0.4-0.1-0.8
			s0.1-0.8,0.3-1.4c0.2-0.6,0.6-1.3,1.1-2.1c0.5-0.8,0.8-1.3,0.8-1.5c0.1-0.1,0.1-0.3,0.1-0.4c0-0.6-0.8-0.9-2.3-1l-0.4,0.9
			c-1.2,3.2-2.4,5.4-3.6,6.5c-0.2,0.2-0.3,0.1-0.3-0.2c0-0.1,0-0.1,0.1-0.2c1.1-1.4,2-3.2,2.8-5.1c0.8-2,1.4-3.9,1.7-5.6
			c0.1-0.6,0.4-0.9,0.8-0.9c0.4,0,0.7,0.3,0.9,0.8C203,30.4,203,30.6,203,30.9z"/>
	</g>
	<g id="XMLID_124_">
		<path id="XMLID_54_" class="st1" d="M104.5,53.3h-5v2.9h4.4v0.8h-4.4v3.6h-0.9v-8.2h5.9V53.3z"/>
		<path id="XMLID_56_" class="st1" d="M114.6,58.2c-0.2,0.5-0.5,1-0.9,1.4c-0.4,0.4-0.8,0.7-1.3,0.9c-0.5,0.2-1.1,0.3-1.7,0.3
			s-1.2-0.1-1.7-0.3c-0.5-0.2-1-0.5-1.3-0.9c-0.4-0.4-0.7-0.8-0.9-1.4c-0.2-0.5-0.3-1.1-0.3-1.6c0-0.6,0.1-1.1,0.3-1.6
			c0.2-0.5,0.5-1,0.9-1.4c0.4-0.4,0.8-0.7,1.3-0.9c0.5-0.2,1.1-0.3,1.7-0.3s1.2,0.1,1.7,0.3c0.5,0.2,1,0.5,1.3,0.9
			c0.4,0.4,0.7,0.8,0.9,1.3c0.2,0.5,0.3,1.1,0.3,1.6S114.8,57.6,114.6,58.2z M113.7,55.2c-0.2-0.4-0.4-0.8-0.7-1.1
			c-0.3-0.3-0.6-0.5-1-0.7c-0.4-0.2-0.8-0.3-1.3-0.3s-0.9,0.1-1.3,0.3c-0.4,0.2-0.7,0.4-1,0.7c-0.3,0.3-0.5,0.7-0.7,1.1
			c-0.2,0.4-0.2,0.9-0.2,1.3s0.1,0.9,0.2,1.3c0.2,0.4,0.4,0.8,0.7,1.1c0.3,0.3,0.6,0.5,1,0.7c0.4,0.2,0.8,0.3,1.3,0.3
			s0.9-0.1,1.3-0.3c0.4-0.2,0.7-0.4,1-0.7c0.3-0.3,0.5-0.7,0.7-1.1c0.2-0.4,0.2-0.9,0.2-1.3C114,56.1,113.9,55.6,113.7,55.2z"/>
		<path id="XMLID_59_" class="st1" d="M120.3,60.7h-0.9v-7.4h-2.8v-0.9h6.4v0.9h-2.8V60.7z"/>
		<path id="XMLID_61_" class="st1" d="M132.7,58.2c-0.2,0.5-0.5,1-0.9,1.4c-0.4,0.4-0.8,0.7-1.3,0.9c-0.5,0.2-1.1,0.3-1.7,0.3
			s-1.2-0.1-1.7-0.3c-0.5-0.2-1-0.5-1.3-0.9c-0.4-0.4-0.7-0.8-0.9-1.4c-0.2-0.5-0.3-1.1-0.3-1.6c0-0.6,0.1-1.1,0.3-1.6
			c0.2-0.5,0.5-1,0.9-1.4c0.4-0.4,0.8-0.7,1.3-0.9c0.5-0.2,1.1-0.3,1.7-0.3s1.2,0.1,1.7,0.3c0.5,0.2,1,0.5,1.3,0.9
			c0.4,0.4,0.7,0.8,0.9,1.3c0.2,0.5,0.3,1.1,0.3,1.6S133,57.6,132.7,58.2z M131.9,55.2c-0.2-0.4-0.4-0.8-0.7-1.1
			c-0.3-0.3-0.6-0.5-1-0.7c-0.4-0.2-0.8-0.3-1.3-0.3s-0.9,0.1-1.3,0.3c-0.4,0.2-0.7,0.4-1,0.7c-0.3,0.3-0.5,0.7-0.7,1.1
			c-0.2,0.4-0.2,0.9-0.2,1.3s0.1,0.9,0.2,1.3c0.2,0.4,0.4,0.8,0.7,1.1c0.3,0.3,0.6,0.5,1,0.7c0.4,0.2,0.8,0.3,1.3,0.3
			s0.9-0.1,1.3-0.3c0.4-0.2,0.7-0.4,1-0.7c0.3-0.3,0.5-0.7,0.7-1.1c0.2-0.4,0.2-0.9,0.2-1.3C132.1,56.1,132,55.6,131.9,55.2z"/>
		<path id="XMLID_64_" class="st1" d="M141.5,60.4c-0.6,0.2-1.2,0.4-1.9,0.4c-0.6,0-1.2-0.1-1.7-0.3c-0.5-0.2-1-0.5-1.3-0.9
			c-0.4-0.4-0.6-0.8-0.8-1.4c-0.2-0.5-0.3-1.1-0.3-1.7c0-0.6,0.1-1.1,0.3-1.6s0.5-1,0.8-1.4c0.4-0.4,0.8-0.7,1.3-0.9
			c0.5-0.2,1.1-0.3,1.7-0.3c0.3,0,0.7,0,0.9,0.1c0.3,0,0.6,0.1,0.8,0.2c0.2,0.1,0.5,0.2,0.7,0.3c0.2,0.1,0.4,0.3,0.6,0.5l-0.6,0.7
			c-0.2-0.1-0.3-0.3-0.5-0.4c-0.2-0.1-0.4-0.2-0.6-0.3c-0.2-0.1-0.4-0.1-0.7-0.2c-0.2,0-0.5-0.1-0.8-0.1c-0.5,0-0.9,0.1-1.3,0.3
			c-0.4,0.2-0.7,0.4-1,0.7c-0.3,0.3-0.5,0.7-0.6,1.1c-0.2,0.4-0.2,0.8-0.2,1.3c0,0.5,0.1,1,0.2,1.4c0.2,0.4,0.4,0.8,0.7,1.1
			c0.3,0.3,0.6,0.5,1,0.7c0.4,0.2,0.8,0.3,1.3,0.3c0.5,0,0.9-0.1,1.3-0.2c0.4-0.2,0.8-0.4,1-0.6v-2.1h-2.5v-0.8h3.4v3.3
			C142.6,59.9,142.1,60.2,141.5,60.4z"/>
		<path id="XMLID_66_" class="st1" d="M151.5,60.7l-2.4-3.2h-2.3v3.2h-0.9v-8.2h3.5c0.5,0,0.9,0.1,1.2,0.2c0.4,0.1,0.7,0.3,0.9,0.5
			c0.3,0.2,0.5,0.5,0.6,0.8c0.1,0.3,0.2,0.6,0.2,1c0,0.3-0.1,0.7-0.2,0.9c-0.1,0.3-0.3,0.5-0.5,0.7c-0.2,0.2-0.4,0.4-0.7,0.5
			c-0.3,0.1-0.6,0.2-0.9,0.3l2.5,3.4H151.5z M150.9,53.7c-0.4-0.3-0.9-0.4-1.6-0.4h-2.5v3.3h2.5c0.3,0,0.6,0,0.8-0.1
			s0.5-0.2,0.7-0.3s0.3-0.3,0.4-0.5c0.1-0.2,0.2-0.5,0.2-0.7C151.4,54.4,151.3,54,150.9,53.7z"/>
		<path id="XMLID_69_" class="st1" d="M162.8,60.7h-1l-1-2.2h-4.5l-1,2.2h-1l3.7-8.3h0.9L162.8,60.7z M158.6,53.5l-1.9,4.2h3.7
			L158.6,53.5z"/>
		<path id="XMLID_72_" class="st1" d="M171.2,53.3h-5v2.9h4.4v0.8h-4.4v3.6h-0.9v-8.2h5.9V53.3z"/>
		<path id="XMLID_74_" class="st1" d="M174.8,52.4v8.2h-0.9v-8.2H174.8z M174,51.7l1.1-1.7l0.9,0.4l-1.3,1.3H174z"/>
		<path id="XMLID_77_" class="st1" d="M185.7,60.7h-1l-1-2.2h-4.5l-1,2.2h-1l3.7-8.3h0.9L185.7,60.7z M181.5,53.5l-1.9,4.2h3.7
			L181.5,53.5z"/>
	</g>
</g>
<g id="XMLID_271_">
	<circle id="XMLID_328_" class="st2" cx="38.2" cy="38" r="32.3"/>
	<polygon id="XMLID_302_" class="st3" points="19.3,39.5 28.6,55 47.2,55 56.5,39.5 47.2,24 28.6,24 	"/>
	<linearGradient id="XMLID_120_" gradientUnits="userSpaceOnUse" x1="16.8537" y1="26.8083" x2="37.3586" y2="26.8083">
		<stop  offset="0" style="stop-color:#65181A"/>
		<stop  offset="0.108" style="stop-color:#761A1C"/>
		<stop  offset="0.3208" style="stop-color:#901E1E"/>
		<stop  offset="0.5384" style="stop-color:#A32020"/>
		<stop  offset="0.7618" style="stop-color:#AE2222"/>
		<stop  offset="1" style="stop-color:#B22222"/>
	</linearGradient>
	<path id="XMLID_300_" class="st4" d="M37.4,14.8c-9,0.4-16.9,5.6-20.5,13.4l6.3,10.6L37.4,14.8z"/>
	<linearGradient id="XMLID_121_" gradientUnits="userSpaceOnUse" x1="14.6512" y1="40.6894" x2="30.504" y2="40.6894">
		<stop  offset="0" style="stop-color:#65181A"/>
		<stop  offset="0.108" style="stop-color:#761A1C"/>
		<stop  offset="0.3208" style="stop-color:#901E1E"/>
		<stop  offset="0.5384" style="stop-color:#A32020"/>
		<stop  offset="0.7618" style="stop-color:#AE2222"/>
		<stop  offset="1" style="stop-color:#B22222"/>
	</linearGradient>
	<path id="XMLID_279_" class="st5" d="M23.1,39.5L23.1,39.5L23.1,39.5l-6.3-11.2c-1.4,3-2.2,6.9-2.2,10.5c0,5.1,1.6,10.1,4.3,14.1
		h11.5L23.1,39.5z"/>
	<linearGradient id="XMLID_122_" gradientUnits="userSpaceOnUse" x1="45.2831" y1="38.9051" x2="61.7102" y2="38.9051">
		<stop  offset="0" style="stop-color:#65181A"/>
		<stop  offset="0.108" style="stop-color:#761A1C"/>
		<stop  offset="0.3208" style="stop-color:#901E1E"/>
		<stop  offset="0.5384" style="stop-color:#A32020"/>
		<stop  offset="0.7618" style="stop-color:#AE2222"/>
		<stop  offset="1" style="stop-color:#B22222"/>
	</linearGradient>
	<path id="XMLID_277_" class="st6" d="M58.5,28H45.3l7.4,11.8l0,0l0,0l6.1,10c1.9-3.4,2.9-6.5,2.9-10.6C61.7,34.8,60.8,32,58.5,28z"
		/>
	<linearGradient id="XMLID_125_" gradientUnits="userSpaceOnUse" x1="30.504" y1="21.6952" x2="58.4848" y2="21.6952">
		<stop  offset="0" style="stop-color:#65181A"/>
		<stop  offset="0.108" style="stop-color:#761A1C"/>
		<stop  offset="0.3208" style="stop-color:#901E1E"/>
		<stop  offset="0.5384" style="stop-color:#A32020"/>
		<stop  offset="0.7618" style="stop-color:#AE2222"/>
		<stop  offset="1" style="stop-color:#B22222"/>
	</linearGradient>
	<path id="XMLID_276_" class="st7" d="M38.2,15.4l-0.8,0.3L30.5,28h14.8h13.2C54.4,20,46.8,15.4,38.2,15.4z"/>
	<linearGradient id="XMLID_126_" gradientUnits="userSpaceOnUse" x1="18.9743" y1="57.6795" x2="45.2831" y2="57.6795">
		<stop  offset="0" style="stop-color:#65181A"/>
		<stop  offset="0.108" style="stop-color:#761A1C"/>
		<stop  offset="0.3208" style="stop-color:#901E1E"/>
		<stop  offset="0.5384" style="stop-color:#A32020"/>
		<stop  offset="0.7618" style="stop-color:#AE2222"/>
		<stop  offset="1" style="stop-color:#B22222"/>
	</linearGradient>
	<path id="XMLID_275_" class="st8" d="M30.5,53H19c4.3,6,11.3,9.2,19.2,9.2c0.5,0,0.9,0.2,1.4,0.1l5.7-9.4H30.5z"/>
	<linearGradient id="XMLID_127_" gradientUnits="userSpaceOnUse" x1="39.5364" y1="50.9447" x2="58.7796" y2="50.9447">
		<stop  offset="0" style="stop-color:#65181A"/>
		<stop  offset="0.108" style="stop-color:#761A1C"/>
		<stop  offset="0.3208" style="stop-color:#901E1E"/>
		<stop  offset="0.5384" style="stop-color:#A32020"/>
		<stop  offset="0.7618" style="stop-color:#AE2222"/>
		<stop  offset="1" style="stop-color:#B22222"/>
	</linearGradient>
	<path id="XMLID_274_" class="st9" d="M45.3,53L45.3,53L45.3,53l-5.7,9.2c8.3-0.5,15.4-5.6,19.2-12.5l-6.1-10L45.3,53z"/>
	<circle id="XMLID_273_" class="st10" cx="52.5" cy="24" r="4.2"/>
	<circle id="XMLID_272_" class="st10" cx="56.9" cy="32.1" r="1.9"/>
</g>
<g id="XMLID_53_">
</g>
<g id="XMLID_105_">
</g>
<g id="XMLID_106_">
</g>
<g id="XMLID_107_">
</g>
<g id="XMLID_108_">
</g>
<g id="XMLID_109_">
</g>
<g id="XMLID_110_">
</g>
<g id="XMLID_111_">
</g>
<g id="XMLID_112_">
</g>
<g id="XMLID_113_">
</g>
<g id="XMLID_114_">
</g>
<g id="XMLID_115_">
</g>
<g id="XMLID_116_">
</g>
<g id="XMLID_117_">
</g>
<g id="XMLID_118_">
</g>
</svg>
